<svg width="500" height="581" viewBox="0 0 500 581" fill="none" xmlns="http://www.w3.org/2000/svg">
<path d="M0 210.508V105.395H20.7013V148.436H38.012V105.395H58.7133V210.508H38.012V163.732H20.7013V210.508H0Z" fill="white"/>
<path d="M73.7193 210.508V105.395H94.4206V210.508H73.7193Z" fill="white"/>
<path d="M109.446 210.508V105.395H146.923C153.942 105.395 159.236 106.995 162.806 110.197C166.494 113.28 168.338 117.608 168.338 123.18V141.322C168.338 146.065 167.743 150.511 166.553 154.661C165.364 158.692 163.222 161.953 160.129 164.443C157.035 166.933 152.574 168.178 146.744 168.178H131.04V210.508H109.446ZM131.04 156.795H139.07C141.926 156.795 144.067 155.432 145.495 152.704C146.923 149.977 147.637 145.472 147.637 139.187V132.073C147.637 126.5 147.042 122.528 145.852 120.157C144.662 117.785 142.937 116.6 140.677 116.6H131.04V156.795Z" fill="white"/>
<path d="M178.435 167.822V154.127H215.554V167.822H178.435Z" fill="white"/>
<path d="M229.523 210.508V105.395H250.224V148.436H267.535V105.395H288.236V210.508H267.535V163.732H250.224V210.508H229.523Z" fill="white"/>
<path d="M331.261 212.642C325.431 212.642 320.315 211.931 315.913 210.508C311.511 209.203 308.061 206.417 305.562 202.148C303.183 197.761 301.993 191.299 301.993 182.762V127.627C301.993 121.343 303.183 116.481 305.562 113.043C308.061 109.604 311.511 107.233 315.913 105.928C320.434 104.505 325.609 103.794 331.439 103.794C337.15 103.794 342.206 104.505 346.608 105.928C351.129 107.351 354.639 109.782 357.137 113.22C359.755 116.659 361.063 121.461 361.063 127.627V182.584C361.063 191.24 359.755 197.761 357.137 202.148C354.639 206.417 351.129 209.203 346.608 210.508C342.206 211.931 337.09 212.642 331.261 212.642ZM331.261 200.548C333.045 200.548 334.592 200.251 335.901 199.659C337.328 199.066 338.399 198.058 339.113 196.635C339.946 195.094 340.362 193.019 340.362 190.41V126.737C340.362 124.129 339.946 122.113 339.113 120.69C338.399 119.149 337.328 118.082 335.901 117.489C334.592 116.896 333.045 116.6 331.261 116.6C329.476 116.6 327.929 116.896 326.621 117.489C325.312 118.082 324.241 119.149 323.408 120.69C322.695 122.113 322.338 124.129 322.338 126.737V190.41C322.338 193.019 322.695 195.094 323.408 196.635C324.241 198.058 325.312 199.066 326.621 199.659C327.929 200.251 329.476 200.548 331.261 200.548Z" fill="white"/>
<path d="M374.87 210.508V105.395H412.347C419.366 105.395 424.661 106.995 428.23 110.197C431.918 113.28 433.762 117.608 433.762 123.18V141.322C433.762 146.065 433.167 150.511 431.978 154.661C430.788 158.692 428.646 161.953 425.553 164.443C422.46 166.933 417.998 168.178 412.168 168.178H396.464V210.508H374.87ZM396.464 156.795H404.495C407.35 156.795 409.492 155.432 410.919 152.704C412.347 149.977 413.061 145.472 413.061 139.187V132.073C413.061 126.5 412.466 122.528 411.276 120.157C410.086 117.785 408.361 116.6 406.101 116.6H396.464V156.795Z" fill="white"/>
<path d="M1.74138 463.397V245.78H60.4868V330.102H73.7876V245.78H132.533V463.397H73.7876V373.184H60.4868V463.397H1.74138Z" fill="white"/>
<path d="M216.142 467.816C206.29 467.816 197.3 467.079 189.171 465.606C181.289 464.379 174.516 461.679 168.85 457.505C163.185 453.332 158.752 446.95 155.55 438.358C152.594 429.766 151.116 418.106 151.116 403.377V245.78H209.861V421.052C209.861 423.752 210.108 425.961 210.6 427.68C211.093 429.398 211.832 430.626 212.817 431.362C213.802 431.853 214.911 432.098 216.142 432.098C217.374 432.098 218.482 431.853 219.468 431.362C220.453 430.626 221.192 429.398 221.684 427.68C222.177 425.961 222.423 423.752 222.423 421.052V245.78H281.169V403.009C281.169 417.738 279.568 429.521 276.366 438.358C273.41 446.95 269.099 453.332 263.434 457.505C257.769 461.679 250.872 464.379 242.744 465.606C234.862 467.079 225.995 467.816 216.142 467.816Z" fill="white"/>
<path d="M299.769 463.397V245.78H385.486C400.757 245.78 411.841 249.34 418.738 256.459C425.881 263.332 429.452 272.169 429.452 282.97V306.536C429.452 312.673 428.59 318.442 426.866 323.842C425.142 328.997 422.309 333.416 418.368 337.098C415.905 339.553 412.826 341.64 409.132 343.358C405.437 344.831 401.496 345.813 397.309 346.304V347.04C400.757 347.04 404.082 347.531 407.284 348.513C410.733 349.495 414.427 351.336 418.368 354.036C422.802 357.227 426.373 361.769 429.083 367.66C431.792 373.306 433.147 380.425 433.147 389.017V417.37C433.147 428.907 431.053 438.113 426.866 444.986C422.679 451.614 416.644 456.401 408.762 459.347C400.88 462.047 391.397 463.397 380.313 463.397H299.769ZM358.884 433.571H366.273C367.997 433.571 369.352 433.08 370.337 432.098C371.323 430.871 372.062 428.907 372.554 426.207C373.293 423.261 373.663 419.211 373.663 414.056V390.858C373.663 382.757 373.047 377.602 371.815 375.393C370.584 372.938 368.613 371.711 365.904 371.711H358.884V433.571ZM358.884 335.257H364.795C367.012 335.257 368.983 333.907 370.707 331.207C372.431 328.261 373.293 322.247 373.293 313.164V293.649C373.293 287.266 372.677 282.847 371.446 280.393C370.214 277.938 368.244 276.711 365.534 276.711H358.884V335.257Z" fill="white"/>
<path d="M207.214 0V82.4751H221.156V13.895H486.058V566.913H221.156V498.333H207.214V580.808H500V0H207.214Z" fill="white"/>
</svg>
